<svg xmlns="http://www.w3.org/2000/svg" xmlns:xlink="http://www.w3.org/1999/xlink" viewBox="0 0 127.25 57.05"><defs><style>.cls-1,.cls-2,.cls-3{stroke:#040000;stroke-miterlimit:10;}.cls-1,.cls-2{stroke-width:0.25px;}.cls-1{fill:url(#linear-gradient);}.cls-2{fill:url(#linear-gradient-2);}.cls-3{fill:none;stroke-width:0.1px;}.cls-4,.cls-5,.cls-6,.cls-7{opacity:0.7;}.cls-4{fill:url(#linear-gradient-3);}.cls-5{fill:url(#linear-gradient-4);}.cls-6{fill:url(#linear-gradient-5);}.cls-7{fill:url(#linear-gradient-6);}.cls-8{fill:url(#linear-gradient-7);}.cls-9{fill:#040000;}</style><linearGradient id="linear-gradient" x1="62.82" y1="18.86" x2="66.04" y2="33.52" gradientUnits="userSpaceOnUse"><stop offset="0" stop-color="#f2e2ce"/><stop offset="1" stop-color="#dfd2b8"/></linearGradient><linearGradient id="linear-gradient-2" x1="64.88" y1="60.02" x2="63.38" y2="48.93" xlink:href="#linear-gradient"/><linearGradient id="linear-gradient-3" x1="297.29" y1="152.8" x2="297.29" y2="151.38" gradientTransform="translate(-252.27 -143.56)" gradientUnits="userSpaceOnUse"><stop offset="0" stop-color="#fff"/><stop offset="0.21" stop-color="#fff" stop-opacity="0.72"/><stop offset="0.42" stop-color="#fff" stop-opacity="0.47"/><stop offset="0.61" stop-color="#fff" stop-opacity="0.27"/><stop offset="0.78" stop-color="#fff" stop-opacity="0.12"/><stop offset="0.91" stop-color="#fff" stop-opacity="0.03"/><stop offset="1" stop-color="#fff" stop-opacity="0"/></linearGradient><linearGradient id="linear-gradient-4" x1="241.35" y1="152.8" x2="241.35" y2="151.38" gradientTransform="translate(-140.38 -143.56)" xlink:href="#linear-gradient-3"/><linearGradient id="linear-gradient-5" y1="22.57" x2="3.64" y2="22.57" gradientUnits="userSpaceOnUse"><stop offset="0" stop-color="#231815"/><stop offset="0.09" stop-color="#231815" stop-opacity="0.88"/><stop offset="0.65" stop-color="#231815" stop-opacity="0.24"/><stop offset="1" stop-color="#231815" stop-opacity="0"/></linearGradient><linearGradient id="linear-gradient-6" x1="310.14" y1="169.25" x2="313.77" y2="169.25" gradientTransform="translate(-186.86 -146.47)" xlink:href="#linear-gradient-5"/><linearGradient id="linear-gradient-7" x1="101.92" y1="316.71" x2="103.87" y2="316.71" gradientTransform="translate(-39.34 -270.6)" xlink:href="#linear-gradient-5"/></defs><title>X-SCADA_machine04</title><g id="Layer_2" data-name="Layer 2"><g id="Layer_1-2" data-name="Layer 1"><rect class="cls-1" x="0.24" y="0.22" width="126.88" height="45.14"/><rect class="cls-2" x="3.64" y="45.36" width="120.09" height="11.56"/><line class="cls-3" x1="18.83" y1="0.22" x2="18.83" y2="45.36"/><line class="cls-3" x1="71.23" y1="0.22" x2="71.23" y2="45.36"/><line class="cls-3" x1="74.95" y1="0.22" x2="74.95" y2="45.36"/><rect class="cls-4" x="18.9" y="7.82" width="52.25" height="1.42" transform="translate(90.05 17.07) rotate(180)"/><rect class="cls-5" x="75.02" y="7.82" width="51.89" height="1.42" transform="translate(201.93 17.07) rotate(180)"/><rect class="cls-6" width="3.64" height="45.14"/><rect class="cls-7" x="123.27" y="0.22" width="3.64" height="45.14" transform="translate(250.18 45.57) rotate(180)"/><rect class="cls-8" x="62.58" y="-13.82" width="1.94" height="119.87" transform="translate(109.66 -17.44) rotate(90)"/><rect class="cls-9" x="8.92" y="47.67" width="19.82" height="9.25" rx="3" ry="3"/><rect class="cls-9" x="29.75" y="47.67" width="19.82" height="9.25" rx="3" ry="3"/><rect class="cls-9" x="102.23" y="47.67" width="16.57" height="9.25" rx="3" ry="3"/><rect class="cls-9" x="50.53" y="47.67" width="50.8" height="9.25" rx="3" ry="3"/><rect class="cls-9" x="18.9" y="2.69" width="8.33" height="5.13" rx="1" ry="1"/><rect class="cls-9" x="28.74" y="2.69" width="8.33" height="5.13" rx="1" ry="1"/><rect class="cls-9" x="38.58" y="2.69" width="8.33" height="5.13" rx="1" ry="1"/><rect class="cls-9" x="48.42" y="2.69" width="8.33" height="5.13" rx="1" ry="1"/><rect class="cls-9" x="58.26" y="2.69" width="8.33" height="5.13" rx="1" ry="1"/><rect class="cls-9" x="68.09" y="2.69" width="3.14" height="5.13" rx="1" ry="1"/><rect class="cls-9" x="123.77" y="2.69" width="3.14" height="5.13" rx="1" ry="1"/><rect class="cls-9" x="75.02" y="2.69" width="8.33" height="5.13" rx="1" ry="1"/><rect class="cls-9" x="84.86" y="2.69" width="8.33" height="5.13" rx="1" ry="1"/><rect class="cls-9" x="94.7" y="2.69" width="8.33" height="5.13" rx="1" ry="1"/><rect class="cls-9" x="104.54" y="2.69" width="8.33" height="5.13" rx="1" ry="1"/><rect class="cls-9" x="114.38" y="2.69" width="8.33" height="5.13" rx="1" ry="1"/><rect class="cls-9" x="24.79" y="0.22" width="1.39" height="4.29"/><rect class="cls-9" x="121.31" y="0.22" width="1.39" height="4.29"/><rect class="cls-9" x="66.18" y="0.41" width="2.31" height="2.32"/><rect class="cls-9" x="82.98" y="0.41" width="2.31" height="2.32"/></g></g></svg>