<svg xmlns="http://www.w3.org/2000/svg" xmlns:xlink="http://www.w3.org/1999/xlink" viewBox="0 0 76.25 128.27"><defs><style>.cls-1{fill:#74abad;}.cls-1,.cls-11,.cls-12{stroke:#040000;}.cls-1,.cls-10,.cls-11,.cls-12,.cls-15,.cls-16,.cls-17,.cls-18{stroke-miterlimit:10;stroke-width:0.5px;}.cls-2{fill:url(#linear-gradient);}.cls-3{fill:#0b4647;}.cls-4{fill:url(#linear-gradient-2);}.cls-15,.cls-16,.cls-5{fill:none;}.cls-6{fill:#221714;}.cls-12,.cls-7{fill:#040000;}.cls-8{fill:#efefef;}.cls-9{fill:#151413;}.cls-10,.cls-11{fill:#7fa8a4;}.cls-10,.cls-16,.cls-17,.cls-18{stroke:#231815;}.cls-13{fill:#231815;}.cls-14{fill:#7dbeb8;}.cls-15{stroke:#fff;}.cls-17{fill:#e60012;}.cls-18{fill:#22ac38;}.cls-19{fill:url(#linear-gradient-3);}.cls-20{fill:url(#linear-gradient-4);}.cls-21{fill:url(#linear-gradient-5);}</style><linearGradient id="linear-gradient" x1="147.47" y1="98.81" x2="155.32" y2="98.81" gradientTransform="translate(-78.5 -20.81)" gradientUnits="userSpaceOnUse"><stop offset="0"/><stop offset="1" stop-opacity="0"/></linearGradient><linearGradient id="linear-gradient-2" x1="0.31" y1="46.51" x2="65.12" y2="46.51" gradientUnits="userSpaceOnUse"><stop offset="0" stop-color="#85cccf"/><stop offset="1" stop-color="#6aa8ab"/></linearGradient><linearGradient id="linear-gradient-3" x1="152.78" y1="168.33" x2="160.63" y2="168.33" gradientTransform="translate(-153.32 -85.02)" xlink:href="#linear-gradient"/><linearGradient id="linear-gradient-4" x1="152.78" y1="155.26" x2="160.63" y2="155.26" gradientTransform="translate(-140.25 -71.96)" xlink:href="#linear-gradient"/><linearGradient id="linear-gradient-5" x1="152.78" y1="109.78" x2="160.63" y2="109.78" gradientTransform="translate(-94.77 -26.48)" xlink:href="#linear-gradient"/></defs><title>X-SCADA_machine43</title><g id="Layer_2" data-name="Layer 2"><g id="Layer_1-2" data-name="Layer 1"><rect class="cls-1" x="69.92" y="74.01" width="6.07" height="44.28"/><rect class="cls-2" x="68.97" y="74.78" width="7.85" height="6.43" transform="translate(150.9 5.1) rotate(90)"/><rect class="cls-1" x="13.37" y="78.65" width="6.07" height="39.65"/><polygon class="cls-3" points="65.12 6.18 75.87 2.9 76.02 74.78 65.12 79.37 65.12 6.18"/><rect class="cls-4" x="0.31" y="13.58" width="64.81" height="65.85"/><polygon class="cls-5" points="10.45 3.11 0.84 13.35 65.03 13.35 75.24 3.03 10.45 3.11"/><path class="cls-6" d="M10.35,2.66h-.1L.08,13.49v.32H65.22l10.88-11V2.57ZM65,13.35H.84L10.45,3.11,75.24,3Z"/><polygon class="cls-5" points="65.35 6.35 65.35 79.03 75.79 74.62 75.64 3.21 65.35 6.35"/><path class="cls-7" d="M76.1,2.9V2.6L65.05,6l-.16,0V79.66H65l11.23-4.73ZM65.35,79V6.35L75.64,3.21l.15,71.41Z"/><rect class="cls-5" x="0.54" y="13.81" width="64.35" height="65.4"/><path class="cls-6" d="M65.35,13.35H.21l-.13.14V79.66H65l.35-.14ZM.54,79.2V13.81H64.89V79.2Z"/><polygon class="cls-8" points="0.77 13.4 10.45 3.11 75.31 3.03 64.97 13.4 0.77 13.4"/><polygon points="76.11 2.56 10.51 2.63 7.56 5.72 72.9 5.72 76.11 2.56"/><polygon class="cls-9" points="7.56 5.72 3.12 10.37 68.2 10.37 72.9 5.72 7.56 5.72"/><polygon points="0.06 13.57 64.96 13.57 68.2 10.37 3.12 10.37 0.06 13.57"/><polygon class="cls-10" points="10.55 2.91 7.74 5.88 3.5 10.35 0.58 13.42 7.03 13.42 17.02 2.9 10.55 2.91"/><polygon class="cls-11" points="68.63 2.91 65.82 5.88 61.58 10.35 58.66 13.42 65.11 13.42 75.09 2.9 68.63 2.91"/><polygon class="cls-12" points="17.21 3.21 7.62 13.33 15.03 13.3 24.5 3.21 17.21 3.21"/><polygon class="cls-7" points="63.43 0.5 53.84 10.61 61.25 10.59 68.19 3.01 63.43 0.5"/><polygon class="cls-10" points="61.34 0.26 51.75 10.37 59.15 10.35 68.62 0.25 61.34 0.26"/><polygon class="cls-13" points="69.13 0.02 69.13 2.63 66.78 2.73 66.46 2.71 69.13 0.02"/><polygon class="cls-10" points="19.04 0.71 9.45 10.82 16.85 10.8 26.32 0.7 19.04 0.71"/><polygon class="cls-7" points="26.82 0.48 26.82 4.62 18.42 13.36 14.7 13.24 26.82 0.48"/><rect class="cls-14" x="4.14" y="17.82" width="15.06" height="20.15"/><polyline class="cls-15" points="4.08 37.92 4.08 17.78 19.15 17.78"/><polyline class="cls-16" points="19.15 17.58 19.15 37.92 3.85 37.92"/><line class="cls-16" x1="19.15" y1="17.54" x2="19.15" y2="37.92"/><ellipse class="cls-17" cx="11.61" cy="23.36" rx="2.74" ry="2.73"/><ellipse class="cls-18" cx="11.61" cy="32.04" rx="2.74" ry="2.73"/><rect class="cls-1" x="0.31" y="79.42" width="6.07" height="48.6"/><rect class="cls-1" x="58.71" y="79.43" width="6.07" height="48.59"/><rect class="cls-19" x="-0.54" y="80.09" width="7.85" height="6.43" transform="translate(86.69 79.92) rotate(90)"/><rect class="cls-20" x="12.52" y="80.09" width="7.85" height="6.43" transform="translate(99.75 66.86) rotate(90)"/><rect class="cls-21" x="58.01" y="80.09" width="7.85" height="6.43" transform="translate(145.24 21.38) rotate(90)"/></g></g></svg>